<svg width="214" height="46" viewBox="0 0 214 46" fill="none" xmlns="http://www.w3.org/2000/svg">
<path d="M52.454 24.6698C51.9478 30.0266 47.174 33.9791 41.7947 33.9791H40.3134C40.3134 26.2241 34.0059 19.9166 26.2509 19.9166C18.4959 19.9166 12.1884 26.2241 12.1884 33.9791H9.79029C4.86092 33.9791 0.464042 30.3547 0.0365417 25.446C-0.330958 21.2179 2.11029 17.511 5.70092 15.9791C5.17404 10.7591 9.82217 6.87225 14.6765 7.89413C17.0053 3.34725 21.7284 0.229126 27.1884 0.229126C34.4765 0.229126 40.4522 5.77725 41.1628 12.876C41.1928 13.1704 41.4384 13.3785 41.7347 13.3673C47.9597 13.0898 53.0484 18.366 52.454 24.6698Z" fill="white"/>
<path d="M30.749 23.6704C34.3247 25.2323 36.9253 28.5998 37.4109 32.6198H32.7347C32.5884 29.3291 31.9115 26.0629 30.749 23.6704Z" fill="white"/>
<path d="M26.2509 22.7291C26.3109 22.7291 26.3709 22.7366 26.4309 22.7385C27.8559 23.031 29.7272 26.7716 29.9915 32.6216H22.5084C22.7728 26.7735 24.644 23.0329 26.069 22.7385C26.1309 22.7366 26.1909 22.7291 26.2509 22.7291Z" fill="white"/>
<path d="M26.4309 45.2198C26.3709 45.2216 26.3109 45.2291 26.2509 45.2291C26.1909 45.2291 26.1309 45.2216 26.0709 45.2198C24.6459 44.9273 22.7747 41.1866 22.5103 35.3366H29.9934C29.729 41.1866 27.8559 44.9273 26.4309 45.2198Z" fill="white"/>
<path d="M37.4109 35.3385C36.9253 39.3604 34.3247 42.726 30.749 44.2879C31.9115 41.8954 32.5884 38.631 32.7347 35.3385H37.4109Z" fill="white"/>
<path d="M15.0909 32.6198C15.5765 28.5979 18.1772 25.2323 21.7528 23.6704C20.5903 26.0629 19.9134 29.3273 19.7672 32.6198H15.0909Z" fill="white"/>
<path d="M21.7528 44.2879C18.1772 42.726 15.5765 39.3585 15.0909 35.3385H19.7672C19.9134 38.6291 20.5903 41.8954 21.7528 44.2879Z" fill="white"/>
<path d="M92.9697 19.178H85.8675C85.7728 18.4488 85.5786 17.7907 85.2851 17.2035C84.9915 16.6164 84.6033 16.1145 84.1203 15.6979C83.6373 15.2812 83.0644 14.964 82.4015 14.7462C81.7481 14.5189 81.0237 14.4053 80.2282 14.4053C78.8173 14.4053 77.6004 14.7509 76.5777 15.4422C75.5644 16.1335 74.7832 17.1325 74.2339 18.4393C73.6942 19.7462 73.4243 21.3276 73.4243 23.1837C73.4243 25.1155 73.6989 26.7348 74.2481 28.0416C74.8068 29.339 75.5881 30.3191 76.5919 30.982C77.6051 31.6354 78.8031 31.9621 80.1856 31.9621C80.9622 31.9621 81.6676 31.8626 82.3021 31.6638C82.9461 31.4649 83.5095 31.1761 83.9925 30.7973C84.4849 30.409 84.8873 29.9403 85.1998 29.391C85.5218 28.8323 85.7443 28.2026 85.8675 27.5018L92.9697 27.5445C92.8466 28.8323 92.4726 30.1013 91.8476 31.3513C91.232 32.6013 90.3845 33.7424 89.305 34.7746C88.2254 35.7973 86.9091 36.6117 85.3561 37.2178C83.8125 37.8238 82.0417 38.1268 80.0436 38.1268C77.411 38.1268 75.0531 37.5492 72.9697 36.3939C70.8959 35.2291 69.2576 33.534 68.055 31.3087C66.8523 29.0833 66.251 26.3749 66.251 23.1837C66.251 19.9829 66.8618 17.2698 68.0834 15.0445C69.305 12.8191 70.9574 11.1287 73.0407 9.97343C75.1241 8.81813 77.4584 8.24048 80.0436 8.24048C81.805 8.24048 83.4337 8.48669 84.93 8.97912C86.4262 9.46207 87.7425 10.1723 88.8788 11.1098C90.0152 12.0378 90.9385 13.1789 91.6487 14.5331C92.3589 15.8873 92.7993 17.4356 92.9697 19.178Z" fill="white"/>
<path d="M96.9932 37.7291V8.63821H109.01C111.188 8.63821 113.068 9.06434 114.649 9.91662C116.24 10.7594 117.467 11.9384 118.328 13.4535C119.19 14.9592 119.621 16.7111 119.621 18.7092C119.621 20.7168 119.181 22.4734 118.3 23.9791C117.429 25.4753 116.184 26.6354 114.564 27.4592C112.945 28.2831 111.023 28.695 108.797 28.695H101.382V23.1553H107.49C108.551 23.1553 109.436 22.9706 110.147 22.6013C110.866 22.232 111.411 21.7159 111.78 21.053C112.149 20.3806 112.334 19.5994 112.334 18.7092C112.334 17.8096 112.149 17.0331 111.78 16.3797C111.411 15.7168 110.866 15.2054 110.147 14.8456C109.427 14.4857 108.541 14.3058 107.49 14.3058H104.024V37.7291H96.9932Z" fill="white"/>
<path d="M123.087 37.7291V8.63821H130.118V20.3143H141.581V8.63821H148.598V37.7291H141.581V26.0388H130.118V37.7291H123.087Z" fill="white"/>
<path d="M163.193 38.141C160.902 38.141 158.932 37.6723 157.284 36.7348C155.646 35.7878 154.382 34.4715 153.492 32.7859C152.611 31.0909 152.171 29.1259 152.171 26.891C152.171 24.6467 152.611 22.6818 153.492 20.9962C154.382 19.3011 155.646 17.9848 157.284 17.0473C158.932 16.1003 160.902 15.6268 163.193 15.6268C165.485 15.6268 167.45 16.1003 169.088 17.0473C170.736 17.9848 172 19.3011 172.881 20.9962C173.771 22.6818 174.216 24.6467 174.216 26.891C174.216 29.1259 173.771 31.0909 172.881 32.7859C172 34.4715 170.736 35.7878 169.088 36.7348C167.45 37.6723 165.485 38.141 163.193 38.141ZM163.236 32.8996C164.069 32.8996 164.775 32.6439 165.353 32.1325C165.93 31.6212 166.371 30.9109 166.674 30.0018C166.986 29.0928 167.142 28.0416 167.142 26.8484C167.142 25.6363 166.986 24.5757 166.674 23.6666C166.371 22.7575 165.93 22.0473 165.353 21.5359C164.775 21.0246 164.069 20.7689 163.236 20.7689C162.374 20.7689 161.645 21.0246 161.049 21.5359C160.461 22.0473 160.012 22.7575 159.699 23.6666C159.396 24.5757 159.245 25.6363 159.245 26.8484C159.245 28.0416 159.396 29.0928 159.699 30.0018C160.012 30.9109 160.461 31.6212 161.049 32.1325C161.645 32.6439 162.374 32.8996 163.236 32.8996Z" fill="white"/>
<path d="M196.823 22.5729L190.445 22.7433C190.379 22.2888 190.199 21.8863 189.905 21.5359C189.612 21.1761 189.228 20.8967 188.755 20.6979C188.291 20.4895 187.751 20.3854 187.135 20.3854C186.33 20.3854 185.644 20.5464 185.076 20.8683C184.517 21.1903 184.242 21.6259 184.252 22.1751C184.242 22.6013 184.413 22.9706 184.763 23.2831C185.123 23.5956 185.762 23.8465 186.681 24.0359L190.885 24.8314C193.063 25.2481 194.683 25.9393 195.743 26.9053C196.813 27.8712 197.353 29.1496 197.362 30.7405C197.353 32.2367 196.908 33.5388 196.027 34.6467C195.156 35.7547 193.963 36.6164 192.448 37.232C190.933 37.838 189.2 38.141 187.249 38.141C184.133 38.141 181.676 37.5018 179.877 36.2234C178.087 34.9356 177.064 33.2121 176.809 31.053L183.669 30.8825C183.821 31.678 184.214 32.284 184.848 32.7007C185.483 33.1174 186.292 33.3257 187.277 33.3257C188.167 33.3257 188.892 33.16 189.451 32.8285C190.009 32.4971 190.293 32.0568 190.303 31.5075C190.293 31.0151 190.076 30.6221 189.649 30.3285C189.223 30.0255 188.556 29.7888 187.647 29.6183L183.84 28.8939C181.652 28.4962 180.023 27.7623 178.953 26.6922C177.883 25.6126 177.353 24.2395 177.362 22.5729C177.353 21.1145 177.741 19.8693 178.527 18.8371C179.313 17.7954 180.431 16.9999 181.88 16.4507C183.328 15.9015 185.038 15.6268 187.007 15.6268C189.962 15.6268 192.291 16.2471 193.996 17.4876C195.701 18.7187 196.643 20.4138 196.823 22.5729Z" fill="white"/>
<path d="M213.098 15.9109V21.0246H199.333V15.9109H213.098ZM202.217 10.6837H209.163V30.8683C209.163 31.2945 209.229 31.6401 209.362 31.9053C209.504 32.1609 209.707 32.3456 209.973 32.4592C210.238 32.5634 210.555 32.6155 210.924 32.6155C211.189 32.6155 211.469 32.5918 211.762 32.5445C212.065 32.4876 212.293 32.4403 212.444 32.4024L213.495 37.4166C213.164 37.5113 212.695 37.6297 212.089 37.7717C211.492 37.9138 210.777 38.0037 209.944 38.0416C208.315 38.1174 206.919 37.928 205.754 37.4734C204.599 37.0094 203.713 36.2897 203.098 35.3143C202.492 34.339 202.198 33.1126 202.217 31.6354V10.6837Z" fill="white"/>
</svg>
